<svg xmlns="http://www.w3.org/2000/svg" width="567" height="527"><g transform="rotate(46 270.81 267.91)" fill="none" fill-rule="evenodd"><circle fill="#005BB9" cx="263" cy="270" r="263"/><path d="M382.397.004c22.316 3.263 43.03 19.11 50.547 40.451 7.75 22 .63 46.189-19.887 58.244-41.462 24.364-96.878-16.24-86.87-62.908 2.54-11.85 9.755-21.025 19.558-27.963 10.822-7.66 23.908-7.87 36.652-7.824m-12.043 9.162c-18.74 3.758-35.84 12.186-38.842 33.2-2.728 19.098 10.309 36.766 26.318 45.706 17.316 9.671 39.012 11.278 56.265.56 18.163-11.284 22.283-33.896 11.228-51.636-12.335-19.798-32.999-25.64-54.969-27.83M434.066 23.338c1.5.936 2.626 1.622 3.67 3.135.731 1.061 1.347 2.2 2.046 3.283 1.802 2.79 3.127 5.78 4.034 8.968.825 2.898 1.344 5.824 1.29 8.833-.028 1.586-.208 3.152-.422 4.72-.154 1.124-.186 2.07.46 3.072 1.104-1.327 1.898-2.463 2.558-4.078a26.84 26.84 0 0 0 1.28-3.996c.654-2.787.828-5.681.536-8.54-.288-2.81-.945-5.692-2.185-8.25-.692-1.428-1.527-2.784-2.3-4.168-.73-1.308-1.432-2.586-2.555-3.605-1.05-.953-2.04-2.056-3.223-2.85-.934-.628-2.121-.976-3.193-1.28-2.09-.593-3.958 3.53-1.996 4.756M482.236 96.577c1.352 2.614 3.22 1.954 4.955 3.874 9.71 10.742 18.19 23.348 25.191 35.982 7.377 13.312 10.5 28.247 17.037 41.853.88 1.83 2.254 4.207 4.703 3.524 2.863-.798 1.546-3.537.87-5.49-2.251-6.507-3.098-13.433-5.076-20.033-4.22-14.089-11.5-27.283-20.019-39.218-4.955-6.944-10.434-13.595-16.588-19.525-2.266-2.183-4.909-5.095-8.172-5.663-4.04-.704-4.451 1.697-2.9 4.696M538.656 123.53c1.484 7.118 4.229 13.88 6.21 20.847 1.883 6.622 7.253 7.307 6.32-.647-.313-2.671-7.426-28.062-12.53-20.2" fill="#000"/></g></svg>