<svg xmlns="http://www.w3.org/2000/svg" width="244" height="166"><g fill="none" fill-rule="evenodd"><path d="M161.43.611c-45.564 0-82.5 36.937-82.5 82.5 0 45.564 36.936 82.5 82.5 82.5h82.5v-82.5c0-45.563-36.937-82.5-82.5-82.5z" fill="#FFC107"/><path d="M31.489 70.672c.026 3.787 1.516 8.03 2.336 11.737.878 3.969 1.688 7.644 3.658 11.23.948 1.726 2.042 3.387 2.94 5.137.848 1.655 1.424 3.26 2.771 4.603 1.407 1.401 5.938 5.377 7.804 2.953 1.085-1.41-.384-2.617-1.254-3.67-.996-1.206-1.859-2.517-2.472-3.959-1.448-3.41-1.482-7.459-2.369-11.054-.86-3.485-1.311-6.936-1.235-10.524a63.56 63.56 0 0 1 1.08-10.36c.562-2.978 1.797-5.907 1.43-8.999-.22-1.85-.39-2.317.772-3.852.936-1.24 1.668-2.58 2.06-4.094.444-1.717.437-3.32 1.296-4.923.746-1.397 1.713-2.666 2.495-4.042 1.81-3.18 2.722-6.753 4.633-9.928.988-1.643 2.057-3.236 3.107-4.839.84-1.282 1.976-2.63 2.265-4.175.484-2.595-1.391-6.608-4.189-7.167-3.013-.603-5.5 3.44-7.216 5.282-.13-.105-.259-.21-.39-.314-2.676 3.355-5.713 6.56-7.992 10.206-1.204 1.927-2.046 3.944-2.846 6.064-.679 1.794-1.778 3.15-2.763 4.76-.882 1.438-1.337 2.882-1.211 4.588.165 2.185-.59 2.127-1.821 3.728-1.978 2.572-1.744 7.097-2.01 10.172-.321 3.748-.907 7.68-.88 11.44M5.774 65.955c.97-.475 1.555-2.488 1.82-3.384 1.054-3.573 2.292-7.095 3.408-10.65 1.027-3.273 1.988-6.567 2.935-9.865.79-2.745.718-5.246-1.858-7.02-1.176-.81-2.694-1.64-3.403-.016-.52 1.192-.928 2.268-1.616 3.44-1.729 2.95-3.49 5.908-4.73 9.11-2.15 5.548-3.038 12.088.447 17.328.865.43 1.963 1.563 2.997 1.057" fill="#000"/></g></svg>