<svg width="5172" height="210" viewBox="0 0 5172 210" fill="none" xmlns="http://www.w3.org/2000/svg">
<path d="M5171.1 118.967C5024.15 101.686 4876.98 68.522 4730.02 55.7359C4576.54 42.6501 4423.69 51.2408 4270.73 63.5274C4117.77 75.5145 3964.92 91.1974 3811.65 87.1019C3694.16 84.0052 3576.57 70.1203 3493.43 58.5329L3356.39 38.3547C3344.19 36.6566 3313.58 31.3623 3265.38 22.7716C3211.5 13.182 3102.5 -8.79418 2970.12 3.79218C2889.14 11.4838 2844.88 18.9757 2805.58 26.6674C2790.17 29.6641 2674.65 49.0431 2674.65 49.0431C2597.81 60.6306 2444.33 83.1062 2291.06 87.1019C2137.8 91.0975 1985.04 75.4146 1831.98 63.5274C1679.02 51.2408 1526.07 42.6501 1372.69 55.7359C1219.22 69.1214 1065.54 104.683 912.061 121.165H911.751C893.756 123.063 875.554 123.063 857.559 121.165H857.249C703.773 104.683 549.988 69.1214 396.616 55.7359C264.135 44.4481 132.067 49.2429 0 58.7326V209.469H5171.1V118.967Z" fill="#F2F2F2"/>
</svg>
