<svg width="5172" height="210" viewBox="0 0 5172 210" fill="none" xmlns="http://www.w3.org/2000/svg">
<path d="M5171.1 90.5019C5024.15 107.783 4876.98 140.947 4730.02 153.733C4576.54 166.819 4423.69 158.228 4270.73 145.942C4117.77 133.955 3964.92 118.272 3811.65 122.367C3694.16 125.464 3576.57 139.349 3493.43 150.936L3356.39 171.115C3344.19 172.813 3313.58 178.107 3265.38 186.698C3211.5 196.287 3102.5 218.263 2970.12 205.677C2889.14 197.985 2844.88 190.494 2805.58 182.802C2790.17 179.805 2674.65 160.426 2674.65 160.426C2597.81 148.839 2444.33 126.363 2291.06 122.367C2137.8 118.372 1985.04 134.055 1831.98 145.942C1679.02 158.228 1526.07 166.819 1372.69 153.733C1219.22 140.348 1065.54 104.786 912.061 88.3043H911.751C893.756 86.4063 875.554 86.4063 857.559 88.3043H857.249C703.773 104.786 549.988 140.348 396.616 153.733C264.135 165.021 132.067 160.226 0 150.737V-3.05176e-05H5171.1V90.5019V90.5019Z" fill="white"/>
</svg>
