<svg xmlns="http://www.w3.org/2000/svg" id="Layer_1" width="5000" height="277.3"><style>.st0{fill:#fff}</style><path class="st0" d="M5000 186.8c-142.1-17.3-284.4-50.5-426.5-63.3-148.4-13.1-296.2-4.5-444.1 7.8-147.9 12-295.7 27.7-443.9 23.6-113.6-3.1-227.3-17-307.7-28.6l-132.5-20.2c-11.8-1.7-41.4-7-88-15.6-52.1-9.6-157.5-31.6-285.5-19-78.3 7.7-121.1 15.2-159.1 22.9-14.9 3-126.6 22.4-126.6 22.4-74.3 11.6-222.7 34.1-370.9 38.1s-295.9-11.7-443.9-23.6c-147.9-12.3-295.8-20.9-444.1-7.8-148.4 13.4-297 49-445.4 65.5h-.3c-17.4 1.9-35 1.9-52.4 0h-.3c-148.4-16.5-297.1-52.1-445.4-65.5-128.1-11.3-255.8-6.5-383.5 3v150.9H5000v-90.6z"/><path d="M5000 152c-116.5-14.2-113.4-22-261.2-34.7-164.8-13.8-329.2-3.6-493.7 11-34.3 3-68.7 6.1-103 9.2h-.1c-31.8-1.2-63.6-2.2-95.5-2.9-164.9-4.3-330.1-4.5-493.5-26.6-89.4-12.1-148.9-22.6-197.7-33.2-.5-.1-18-4.1-109.9-27.5C3152.2 23.6 3113.3-.1 2931.3 0c-140 .1-437.9 80.1-583.6 108-162 31-328.6 22.3-493.5 26.6-31.9.7-63.7 1.7-95.5 2.9h-.1c-34.3-3.1-68.7-6.2-103-9.2-164.5-14.6-328.9-24.8-493.7-11-61.8 5.3-97.2 9.7-126 14.2-119.7 18.4-241.4 18.4-361.1 0-28.8-4.4-64.2-8.9-126-14.2-164.8-13.8-329.2-3.6-493.7 11-18.4 1.6-36.7 3.2-55.1 4.9v95.5c219.9 16.9 458 36.6 550.6 34.5 164.5-3.7 140.2 3.7 304.7 0 164.5 3.7 140.1-3.7 304.7 0s788.7-61.2 953.3-57.6c71.7 1.6 171.8-12.3 300.4-41.5h.1c81.9-5.2 152.9-8.3 207-12.1.3 0 .5.1.7.3l73.6 71.8c.2.2.4.3.7.3l572.2-25c.3 0 .5-.2.7-.4l31.6-45.2c.2-.3.5-.4.8-.4 50.9 3.2 114.3 6.1 185.9 10.7h.1c128.6 29.2 228.7 43.1 300.4 41.5 164.6-3.7 788.7 61.2 953.2 57.6 147.5-3.3 143.2 2.3 259.3.8V152z" opacity=".5" fill="#fff"/></svg>